<svg width="24" height="24" viewBox="0 0 24 24" fill="none" xmlns="http://www.w3.org/2000/svg">
<path fill-rule="evenodd" clip-rule="evenodd" d="M14.0256 5.75812C13.3931 3.74729 10.6073 3.74729 9.97478 5.75812C9.88461 6.0448 9.63614 6.21631 9.38024 6.21631C7.27118 6.21631 6.50811 8.93003 8.12043 10.1401C8.34261 10.3068 8.44688 10.6157 8.35556 10.906C8.04567 11.8912 8.44313 12.8128 9.12117 13.3217C9.80272 13.8332 10.8039 13.9498 11.6408 13.3217C11.8568 13.1595 12.1436 13.1595 12.3596 13.3217C13.1965 13.9498 14.1977 13.8332 14.8792 13.3217C15.5573 12.8128 15.9547 11.8912 15.6449 10.906C15.5535 10.6157 15.6578 10.3068 15.88 10.1401C17.4923 8.93003 16.7292 6.21631 14.6202 6.21631C14.3643 6.21631 14.1158 6.0448 14.0256 5.75812ZM9.38024 7.71631C10.3178 7.71631 11.127 7.09399 11.4057 6.20819C11.5978 5.59727 12.4026 5.59727 12.5947 6.20819C12.8734 7.09399 13.6826 7.71631 14.6202 7.71631C14.9102 7.71631 15.1267 7.89471 15.2147 8.17451C15.3033 8.45601 15.2309 8.75176 14.9796 8.9404C14.2362 9.49828 13.9365 10.4739 14.214 11.3561C14.3164 11.6818 14.1938 11.9606 13.9789 12.122C13.7674 12.2807 13.5026 12.304 13.26 12.122C12.5105 11.5594 11.4899 11.5594 10.7404 12.122C10.4978 12.304 10.233 12.2807 10.0216 12.122C9.8066 11.9606 9.684 11.6818 9.78644 11.3561C10.0639 10.4739 9.76417 9.49829 9.02083 8.9404C8.76949 8.75176 8.69716 8.45601 8.7857 8.17451C8.87371 7.89471 9.09018 7.71631 9.38024 7.71631Z" fill="#2D264B"/>
<path fill-rule="evenodd" clip-rule="evenodd" d="M12.0002 0.25C7.16772 0.25 3.25021 4.16751 3.25021 9C3.25021 10.1746 3.48203 11.2965 3.90284 12.3214C3.61243 12.6576 3.34341 13.1238 2.98123 13.7513L1.15525 16.914C0.929779 17.3044 0.721298 17.6654 0.6011 17.9642C0.483366 18.2569 0.335094 18.7645 0.662755 19.2343C0.994567 19.71 1.52719 19.7382 1.84285 19.7225C2.16244 19.7066 2.56872 19.6267 3.00516 19.5407L3.79642 19.3851C4.23508 19.2988 4.49535 19.2491 4.68845 19.2358C4.77664 19.2297 4.82399 19.2338 4.84729 19.2377C4.858 19.2395 4.86303 19.2412 4.86432 19.2416C4.8654 19.242 4.86598 19.2423 4.86725 19.243C4.86853 19.2437 4.86903 19.2441 4.8699 19.2449C4.87094 19.2458 4.87491 19.2493 4.88181 19.2576C4.89686 19.2759 4.92407 19.3148 4.96291 19.3942C5.04796 19.5681 5.13499 19.8184 5.2796 20.2414L5.54041 21.0044C5.68424 21.4254 5.81813 21.8172 5.96418 22.102C6.10842 22.3832 6.39916 22.8304 6.97706 22.8798C7.54774 22.9287 7.91315 22.5465 8.10777 22.2982C8.30646 22.0447 8.51484 21.6837 8.7402 21.2932L10.5293 18.1944C10.639 18.0043 10.7391 17.831 10.8289 17.6722C11.2124 17.7235 11.6034 17.75 12.0002 17.75C12.3075 17.75 12.6112 17.7341 12.9107 17.7031C12.9959 17.8534 13.09 18.0163 13.1925 18.194L14.9819 21.2932C15.2072 21.6837 15.4156 22.0447 15.6143 22.2982C15.8089 22.5465 16.1744 22.9287 16.745 22.8798C17.3229 22.8304 17.6137 22.3832 17.7579 22.102C17.904 21.8173 18.0378 21.4254 18.1817 21.0045L18.4425 20.2414C18.5871 19.8184 18.6741 19.5681 18.7592 19.3942C18.798 19.3148 18.8252 19.2759 18.8403 19.2576C18.8411 19.2566 18.842 19.2556 18.8427 19.2547C18.8481 19.2484 18.8513 19.2456 18.8522 19.2449L18.8534 19.2439L18.8548 19.243C18.8561 19.2423 18.8567 19.242 18.8578 19.2416C18.8591 19.2412 18.8641 19.2395 18.8748 19.2377C18.8981 19.2338 18.9455 19.2297 19.0336 19.2358C19.2267 19.2491 19.487 19.2988 19.9257 19.3851L20.7169 19.5407C21.1534 19.6267 21.5597 19.7066 21.8792 19.7225C22.1949 19.7382 22.7275 19.71 23.0593 19.2343C23.387 18.7645 23.2387 18.2569 23.121 17.9642C23.0008 17.6654 22.7923 17.3045 22.5669 16.9141L20.7221 13.7188C20.4484 13.2443 20.2266 12.8598 19.9998 12.5503C20.4823 11.4645 20.7502 10.2627 20.7502 9C20.7502 4.16751 16.8327 0.25 12.0002 0.25ZM4.75021 9C4.75021 4.99594 7.99614 1.75 12.0002 1.75C16.0043 1.75 19.2502 4.99594 19.2502 9C19.2502 10.1987 18.9599 11.3274 18.4464 12.3217C17.4181 14.3128 15.4952 15.7651 13.213 16.1491C12.8191 16.2154 12.414 16.25 12.0002 16.25C11.5164 16.25 11.0443 16.2027 10.5882 16.1127C8.35311 15.6718 6.48438 14.2015 5.4997 12.2143C5.02013 11.2465 4.75021 10.1558 4.75021 9ZM4.2367 14.5768C4.42631 14.2484 4.57037 14.0003 4.68818 13.8075C5.76985 15.4496 7.39013 16.7061 9.29918 17.325L7.467 20.4984C7.33615 20.7251 7.23191 20.9047 7.14477 21.0475C7.08896 20.8957 7.02385 20.7066 6.94281 20.4696L6.68569 19.7174C6.55889 19.3463 6.44204 19.0044 6.31034 18.7351C6.16495 18.4379 5.96221 18.1431 5.61725 17.944C5.27229 17.7448 4.91563 17.7166 4.58554 17.7393C4.28654 17.7599 3.93197 17.8297 3.54725 17.9054L2.76726 18.0588C2.5214 18.1072 2.32515 18.1453 2.16579 18.1728C2.24587 18.026 2.34929 17.8459 2.48014 17.6193L4.2367 14.5768ZM14.465 17.3979C16.3902 16.8337 18.039 15.6263 19.1641 14.0252C19.2549 14.1786 19.3603 14.3602 19.4854 14.5768L21.242 17.6193C21.3728 17.8459 21.4762 18.026 21.5563 18.1728C21.3969 18.1453 21.2007 18.1072 20.9548 18.0588L20.1749 17.9054C19.7902 17.8297 19.4356 17.7599 19.1366 17.7393C18.8065 17.7166 18.4498 17.7448 18.1048 17.944C17.7599 18.1431 17.5571 18.4379 17.4118 18.7351C17.2801 19.0044 17.1632 19.3463 17.0364 19.7174L16.7793 20.4696C16.6982 20.7066 16.6331 20.8957 16.5773 21.0475C16.4902 20.9047 16.3859 20.7251 16.2551 20.4984L14.465 17.3979Z" fill="#2D264B"/>
</svg>
