<svg width="24" height="24" viewBox="0 0 24 24" fill="none" xmlns="http://www.w3.org/2000/svg">
<path d="M6.08155 10.0002C6.08155 9.44788 6.52926 9.00016 7.08155 9.00016H7.33167H8.83167H9.08155C9.63383 9.00016 10.0815 9.44788 10.0815 10.0002V12.0002C10.0815 12.5524 9.63383 13.0002 9.08155 13.0002H7.08155C6.52926 13.0002 6.08155 12.5524 6.08155 12.0002V10.0002Z" fill="#2D264B"/>
<path d="M6.75249 0.664754C6.56724 0.29427 6.11674 0.144102 5.74626 0.329344C5.37577 0.514586 5.2256 0.96509 5.41085 1.33557L5.46363 1.44115C5.63959 1.79306 5.63959 2.20727 5.46363 2.55918L5.41085 2.66475C5.2256 3.03524 5.37577 3.48574 5.74626 3.67098C6.11674 3.85623 6.56724 3.70606 6.75249 3.33557L6.80527 3.23C7.19237 2.4558 7.19237 1.54453 6.80527 0.770327L6.75249 0.664754Z" fill="#2D264B"/>
<path d="M14.7525 0.664755C14.5672 0.294271 14.1167 0.144102 13.7463 0.329343C13.3758 0.514584 13.2256 0.965089 13.4108 1.33557L13.4636 1.44115C13.6396 1.79306 13.6396 2.20727 13.4636 2.55918L13.4108 2.66475C13.2256 3.03523 13.3758 3.48574 13.7463 3.67098C14.1167 3.85623 14.5672 3.70606 14.7525 3.33558L14.8053 3.23001C15.1924 2.4558 15.1924 1.54453 14.8053 0.770328L14.7525 0.664755Z" fill="#2D264B"/>
<path d="M10.7525 1.33558C10.9377 0.965092 10.7876 0.514587 10.4171 0.329344C10.0466 0.144102 9.59609 0.29427 9.41085 0.664753L9.35806 0.770327C8.97096 1.54453 8.97096 2.4558 9.35806 3.23L9.41085 3.33557C9.59609 3.70606 10.0466 3.85623 10.4171 3.67098C10.7876 3.48574 10.9377 3.03524 10.7525 2.66475L10.6997 2.55918C10.5237 2.20727 10.5237 1.79306 10.6997 1.44115L10.7525 1.33558Z" fill="#2D264B"/>
<path fill-rule="evenodd" clip-rule="evenodd" d="M13.9251 4.52159C13.0719 4.24971 12.006 4.24988 10.252 4.25015L10.0682 4.25016C9.2552 4.25016 8.59707 4.25016 8.05506 4.26941C7.33519 4.29496 6.75987 4.35536 6.2382 4.52159C4.13969 5.19028 2.60754 6.99894 2.29293 9.17883C2.16502 10.0651 2.34042 11.1165 2.62904 12.8466L3.52999 18.2522C3.63888 18.9058 3.7054 19.3051 3.81067 19.6553C4.4644 21.8303 6.33711 23.4167 8.58997 23.704C8.9527 23.7502 9.35745 23.7502 10.02 23.7502H10.1433C10.8058 23.7502 11.2106 23.7502 11.5734 23.704C13.8262 23.4167 15.6989 21.8303 16.3527 19.6553C16.4579 19.3051 16.5244 18.9058 16.6333 18.2523L16.7199 17.7329C16.8391 17.7443 16.9597 17.7502 17.0817 17.7502C19.1527 17.7502 20.8317 16.0712 20.8317 14.0002C20.8317 12.2074 19.5737 10.7085 17.8923 10.338C17.9244 9.91548 17.9224 9.53902 17.8704 9.17883C17.5558 6.99894 16.0236 5.19028 13.9251 4.52159ZM10.0817 5.75016C12.0591 5.75016 12.8688 5.75931 13.4697 5.95078C15.0208 6.44503 16.1532 7.78187 16.3858 9.39309C16.4362 9.74247 16.4199 10.1758 16.3222 10.8999C16.2556 11.3941 16.1557 11.994 16.0267 12.768L15.1639 17.9449C15.0417 18.6779 14.9905 18.9763 14.9162 19.2235C14.433 20.8311 13.0488 22.0037 11.3836 22.216C11.1276 22.2487 10.8248 22.2502 10.0817 22.2502C9.33852 22.2502 9.03577 22.2487 8.77971 22.216C7.11455 22.0037 5.73038 20.8311 5.24718 19.2235C5.17288 18.9763 5.12164 18.6779 4.99947 17.9449L4.13665 12.768C3.81156 10.8175 3.68747 10.0173 3.77755 9.39309C4.01008 7.78187 5.14255 6.44503 6.69362 5.95078C6.87006 5.89456 7.07275 5.85254 7.33167 5.82205L7.33167 9.00016H7.49988C7.49988 9.00016 7.58566 9.00016 7.99988 9.00016C8.41409 9.00016 8.49988 9.00016 8.49988 9.00016H8.83167L8.83167 5.75369C9.19288 5.7502 9.60459 5.75016 10.0817 5.75016ZM17.0817 16.2502C17.0433 16.2502 17.0053 16.2492 16.9675 16.2473L17.5082 13.0032C17.58 12.572 17.6445 12.1851 17.6997 11.8361C18.6418 12.1046 19.3317 12.9718 19.3317 14.0002C19.3317 15.2428 18.3243 16.2502 17.0817 16.2502Z" fill="#2D264B"/>
</svg>
