<svg width="24" height="24" viewBox="0 0 24 24" fill="none" xmlns="http://www.w3.org/2000/svg">
<path d="M6.82027 9.8698C6.74834 9.46188 6.35935 9.1895 5.95143 9.26143C5.54351 9.33336 5.27113 9.72235 5.34306 10.1303L6.38495 16.0391C6.45688 16.447 6.84587 16.7194 7.25379 16.6475C7.66171 16.5756 7.93409 16.1866 7.86216 15.7786L6.82027 9.8698Z" fill="#2D264B"/>
<path fill-rule="evenodd" clip-rule="evenodd" d="M9.91134 2.25002C8.15734 2.24975 7.09141 2.24958 6.2382 2.52146C4.13969 3.19015 2.60754 4.99881 2.29293 7.1787C2.16502 8.06499 2.34042 9.11639 2.62904 10.8465L3.52999 16.2521C3.63888 16.9057 3.7054 17.305 3.81067 17.6552C4.4644 19.8302 6.33711 21.4166 8.58997 21.7038C8.9527 21.7501 9.35745 21.7501 10.02 21.75H10.1433C10.8058 21.7501 11.2106 21.7501 11.5734 21.7038C13.8262 21.4166 15.6989 19.8302 16.3527 17.6552C16.4579 17.305 16.5244 16.9057 16.6333 16.2521L16.7199 15.7328C16.8391 15.7442 16.9597 15.75 17.0817 15.75C19.1527 15.75 20.8317 14.0711 20.8317 12C20.8317 10.2071 19.5734 8.70805 17.8917 8.33776C17.9241 7.90455 17.9209 7.52875 17.8704 7.1787C17.5558 4.99881 16.0236 3.19015 13.9251 2.52146C13.0719 2.24958 12.006 2.24975 10.252 2.25002H9.91134ZM17.0817 14.25C17.0433 14.25 17.0053 14.2491 16.9675 14.2472L17.5343 10.8465C17.5952 10.4812 17.6512 10.1457 17.7002 9.83613C18.6421 10.1049 19.3317 10.9719 19.3317 12C19.3317 13.2427 18.3243 14.25 17.0817 14.25ZM6.69362 3.95065C7.2945 3.75918 8.1042 3.75003 10.0817 3.75003C12.0591 3.75003 12.8688 3.75918 13.4697 3.95065C15.0208 4.4449 16.1532 5.78173 16.3858 7.39296C16.4759 8.01714 16.3518 8.81732 16.0267 10.7679L15.1639 15.9448C15.0417 16.6778 14.9905 16.9762 14.9162 17.2234C14.433 18.831 13.0488 20.0036 11.3836 20.2159C11.1276 20.2485 10.8248 20.25 10.0817 20.25C9.33852 20.25 9.03577 20.2485 8.77971 20.2159C7.11455 20.0036 5.73038 18.831 5.24718 17.2234C5.17288 16.9762 5.12164 16.6778 4.99947 15.9448L4.13665 10.7679C3.81156 8.81732 3.68747 8.01714 3.77755 7.39296C4.01008 5.78173 5.14255 4.4449 6.69362 3.95065Z" fill="#2D264B"/>
</svg>
