<svg width="24" height="24" viewBox="0 0 24 24" fill="none" xmlns="http://www.w3.org/2000/svg">
<path d="M12.75 7C12.75 6.58579 12.4143 6.25 12 6.25C11.5858 6.25 11.25 6.58579 11.25 7V13C11.25 13.4142 11.5858 13.75 12 13.75C12.4143 13.75 12.75 13.4142 12.75 13V7Z" fill="#2D264B"/>
<path fill-rule="evenodd" clip-rule="evenodd" d="M14.3388 1.74711C12.8501 1.0843 11.15 1.0843 9.6613 1.74711C8.73048 2.16154 7.97882 2.95575 7.20259 4.05442C6.42881 5.14963 5.56226 6.65055 4.44277 8.58957L4.40186 8.66043C3.28236 10.5994 2.4158 12.1004 1.85422 13.3181C1.29086 14.5396 0.978879 15.5877 1.08539 16.601C1.25573 18.2217 2.10575 19.694 3.42412 20.6518C4.24844 21.2507 5.31208 21.5046 6.65166 21.6275C7.98701 21.75 9.72011 21.75 11.9591 21.75H12.041C14.2799 21.75 16.0131 21.75 17.3484 21.6275C18.688 21.5046 19.7516 21.2507 20.576 20.6518C21.8943 19.694 22.7444 18.2217 22.9147 16.601C23.0212 15.5877 22.7092 14.5396 22.1459 13.3181C21.5843 12.1004 20.7177 10.5994 19.5982 8.66037L19.5573 8.58948C18.4378 6.65051 17.5713 5.14961 16.7975 4.05442C16.0213 2.95575 15.2696 2.16154 14.3388 1.74711ZM10.2714 3.11743C11.3718 2.62752 12.6283 2.62752 13.7287 3.11743C14.282 3.36379 14.8408 3.88446 15.5724 4.91996C16.3017 5.95228 17.1345 7.39321 18.2787 9.375C19.4229 11.3568 20.2544 12.7985 20.7837 13.9463C21.3147 15.0976 21.4862 15.8419 21.4229 16.4442C21.297 17.6421 20.6687 18.7303 19.6943 19.4383C19.2043 19.7943 18.474 20.0179 17.2114 20.1338C15.9527 20.2492 14.2884 20.25 12 20.25C9.71167 20.25 8.04738 20.2492 6.7887 20.1338C5.52612 20.0179 4.79581 19.7943 4.3058 19.4383C3.33135 18.7303 2.70307 17.6421 2.57717 16.4442C2.51386 15.8419 2.68537 15.0976 3.21634 13.9463C3.74568 12.7985 4.57717 11.3568 5.72135 9.375C6.86554 7.39321 7.69833 5.95228 8.42768 4.91997C9.15928 3.88446 9.71809 3.36379 10.2714 3.11743Z" fill="#2D264B"/>
<path d="M13.0001 16C13.0001 16.5523 12.5524 17 12.0001 17C11.4478 17 11.0001 16.5523 11.0001 16C11.0001 15.4477 11.4478 15 12.0001 15C12.5524 15 13.0001 15.4477 13.0001 16Z" fill="#2D264B"/>
</svg>
