<svg width="24" height="24" viewBox="0 0 24 24" fill="none" xmlns="http://www.w3.org/2000/svg">
<path fill-rule="evenodd" clip-rule="evenodd" d="M15.7798 10.5047C16.372 9.06635 14.9337 7.62795 13.4953 8.22023L10.8184 9.32247C10.1403 9.60169 9.60181 10.1402 9.32259 10.8183L8.22035 13.4951C7.62807 14.9335 9.06645 16.3719 10.5048 15.7796L13.1817 14.6774C13.8598 14.3982 14.3983 13.8597 14.6775 13.1816L15.7798 10.5047ZM14.0664 9.60725C14.2719 9.52264 14.4774 9.72812 14.3928 9.93361L13.2905 12.6105C13.1636 12.9187 12.9188 13.1635 12.6106 13.2904L9.93372 14.3926C9.72824 14.4772 9.52275 14.2718 9.60737 14.0663L10.7096 11.3894C10.8365 11.0812 11.0813 10.8364 11.3895 10.7095L14.0664 9.60725Z" fill="#2D264B"/>
<path fill-rule="evenodd" clip-rule="evenodd" d="M12.2853 1.03051C12.0953 1.02108 11.905 1.02108 11.715 1.03051C10.9817 1.06692 10.3065 1.28001 9.55385 1.62929C8.82112 1.96931 7.96969 2.46089 6.89252 3.0828L6.83152 3.11803C5.75434 3.73993 4.9029 4.2315 4.24207 4.69604C3.56326 5.17323 3.04113 5.65139 2.64292 6.26829C2.53977 6.4281 2.44461 6.59292 2.35779 6.76215C2.02265 7.41546 1.8696 8.10672 1.79576 8.93318C1.72387 9.73775 1.72387 10.7209 1.72388 11.9647V12.0352C1.72387 13.279 1.72387 14.2621 1.79576 15.0667C1.8696 15.8931 2.02265 16.5844 2.35779 17.2377C2.44461 17.407 2.53977 17.5718 2.64292 17.7316C3.04113 18.3485 3.56326 18.8266 4.24207 19.3038C4.90288 19.7684 5.75428 20.2599 6.8314 20.8818L6.8925 20.9171C7.96968 21.539 8.82112 22.0306 9.55385 22.3706C10.3065 22.7199 10.9817 22.9329 11.715 22.9694C11.905 22.9788 12.0953 22.9788 12.2853 22.9694C13.0186 22.9329 13.6938 22.7199 14.4465 22.3706C15.1792 22.0306 16.0306 21.539 17.1078 20.9171L17.1688 20.8818C18.246 20.2599 19.0974 19.7684 19.7582 19.3038C20.4371 18.8266 20.9592 18.3485 21.3574 17.7316C21.4605 17.5718 21.5557 17.407 21.6425 17.2377C21.9777 16.5844 22.1307 15.8931 22.2046 15.0667C22.2764 14.2621 22.2764 13.279 22.2764 12.0352V11.9647C22.2764 10.7209 22.2764 9.73774 22.2046 8.93318C22.1307 8.10672 21.9777 7.41546 21.6425 6.76215C21.5557 6.59292 21.4605 6.42809 21.3574 6.26829C20.9592 5.65139 20.4371 5.17323 19.7582 4.69604C19.0974 4.2315 18.246 3.73993 17.1688 3.11803L17.1078 3.0828C16.0306 2.46089 15.1792 1.96931 14.4465 1.62929C13.6938 1.28001 13.0186 1.06692 12.2853 1.03051ZM11.7894 2.52867C11.9298 2.52169 12.0705 2.52169 12.2109 2.52867C12.6837 2.55214 13.1632 2.6874 13.8151 2.98992C14.48 3.29848 15.2739 3.75606 16.3883 4.39945C17.5027 5.04285 18.2959 5.50162 18.8956 5.92318C19.4835 6.33648 19.8404 6.68405 20.0971 7.08179C20.1734 7.1999 20.2437 7.32173 20.3079 7.44681C20.524 7.86803 20.6465 8.35086 20.7105 9.06668C20.7757 9.7968 20.7764 10.7131 20.7764 11.9999C20.7764 13.2867 20.7757 14.2031 20.7105 14.9332C20.6465 15.649 20.524 16.1318 20.3079 16.5531C20.2437 16.6781 20.1734 16.8 20.0971 16.9181C19.8404 17.3158 19.4835 17.6634 18.8956 18.0767C18.2959 18.4983 17.5027 18.957 16.3883 19.6004C15.2739 20.2438 14.48 20.7014 13.8151 21.01C13.1632 21.3125 12.6837 21.4477 12.2109 21.4712C12.0705 21.4782 11.9298 21.4782 11.7894 21.4712C11.3166 21.4477 10.8372 21.3125 10.1853 21.01C9.52033 20.7014 8.72641 20.2438 7.61202 19.6004C6.49763 18.957 5.70439 18.4983 5.1047 18.0767C4.51677 17.6634 4.15991 17.3158 3.90317 16.9181C3.82693 16.8 3.75659 16.6781 3.69242 16.5531C3.47634 16.1318 3.35377 15.649 3.28981 14.9332C3.22457 14.2031 3.22388 13.2867 3.22388 11.9999C3.22388 10.7131 3.22457 9.7968 3.28981 9.06668C3.35377 8.35086 3.47634 7.86803 3.69242 7.44681C3.75659 7.32173 3.82693 7.1999 3.90317 7.08179C4.15991 6.68405 4.51677 6.33648 5.1047 5.92318C5.70439 5.50162 6.49763 5.04285 7.61202 4.39945C8.72641 3.75606 9.52033 3.29848 10.1853 2.98992C10.8372 2.6874 11.3166 2.55214 11.7894 2.52867Z" fill="#2D264B"/>
</svg>
