<svg width="24" height="24" viewBox="0 0 24 24" fill="none" xmlns="http://www.w3.org/2000/svg">
<path fill-rule="evenodd" clip-rule="evenodd" d="M18.955 3.23755C19.7769 4.05945 20.0663 5.21132 19.824 6.26605C21.4668 6.42865 22.75 7.81452 22.75 9.5001C22.75 10.4403 22.3508 11.2873 21.7126 11.8807C21.75 12.4751 21.75 13.0254 21.75 14.1148V14.1697C21.75 15.3673 21.75 16.3029 21.7008 17.0578C21.6509 17.8244 21.548 18.4577 21.3169 19.0423C20.739 20.5037 19.6262 21.6757 18.212 22.2894C17.6426 22.5365 17.0269 22.6456 16.2893 22.6984C15.5652 22.7501 14.6694 22.7501 13.5292 22.7501H10.4709C9.33069 22.7501 8.43481 22.7501 7.71075 22.6984C6.97308 22.6456 6.3574 22.5365 5.78803 22.2894C4.37384 21.6757 3.26097 20.5037 2.68314 19.0423C2.45201 18.4577 2.34909 17.8244 2.29916 17.0578C2.25 16.3029 2.25 15.3674 2.25 14.1697V14.143C2.25 13.6673 2.24052 13.284 2.23223 12.9487C2.22181 12.5273 2.21327 12.1817 2.22777 11.8238C1.62445 11.2337 1.25 10.4107 1.25 9.5001C1.25 7.76212 2.61421 6.34277 4.33023 6.25446C4.09267 5.20289 4.38303 4.05645 5.20192 3.23756C6.47112 1.96836 8.52891 1.96836 9.79811 3.23756L11.9194 5.35888C11.9748 5.41428 12.0278 5.47122 12.0784 5.52956C12.129 5.47122 12.182 5.41427 12.2374 5.35887L14.3588 3.23755C15.628 1.96834 17.6857 1.96834 18.955 3.23755ZM15.4194 4.29821C16.1028 3.61479 17.2109 3.61479 17.8943 4.29821C18.4218 4.82569 18.5424 5.60715 18.2551 6.2501H13.4675L15.4194 4.29821ZM8.73745 4.29822L10.6893 6.2501H5.90175C5.61448 5.60715 5.7351 4.8257 6.26258 4.29822C6.94599 3.6148 8.05403 3.6148 8.73745 4.29822ZM2.75 9.5001C2.75 8.53361 3.5335 7.7501 4.5 7.7501H11.25V11.2501H4.5C3.5335 11.2501 2.75 10.4666 2.75 9.5001ZM12.75 21.0001L12.75 12.7501H19.5C19.7555 12.7501 20.0042 12.7206 20.2427 12.6649C20.2499 13.0337 20.25 13.4829 20.25 14.143C20.25 15.3731 20.2496 16.2598 20.204 16.9603C20.1588 17.6546 20.0714 18.1127 19.9219 18.4908C19.4848 19.5963 18.651 20.4638 17.6149 20.9134C17.2654 21.065 16.8392 21.1552 16.1823 21.2022C15.518 21.2497 14.6756 21.2501 13.5 21.2501H12.7073C12.735 21.1719 12.75 21.0878 12.75 21.0001ZM11.25 21.0001L11.25 12.7501H4.5C4.23329 12.7501 3.97408 12.718 3.72603 12.6574L3.72973 12.7958C3.73873 13.1282 3.75 13.5444 3.75 14.143C3.75 15.3731 3.75037 16.2598 3.79599 16.9603C3.84121 17.6546 3.92859 18.1127 4.07806 18.4908C4.51518 19.5963 5.34904 20.4638 6.38514 20.9134C6.73463 21.065 7.1608 21.1552 7.81769 21.2022C8.48204 21.2497 9.3244 21.2501 10.5 21.2501H11.2927C11.265 21.1719 11.25 21.0878 11.25 21.0001ZM21.25 9.5001C21.25 8.53361 20.4665 7.7501 19.5 7.7501H12.75V11.2501H19.5C20.4665 11.2501 21.25 10.4666 21.25 9.5001Z" fill="#2D264B"/>
</svg>
