<svg width="24" height="24" viewBox="0 0 24 24" fill="none" xmlns="http://www.w3.org/2000/svg">
<path fill-rule="evenodd" clip-rule="evenodd" d="M17.7312 1.49087C16.5355 0.995609 15.3748 1.30472 14.5492 2.03428C13.7428 2.7469 13.25 3.85532 13.25 5.03297V5.9987C13.25 8.89819 15.6005 11.2487 18.5 11.2487H19.4657C20.6434 11.2487 21.7518 10.7559 22.4644 9.94951C23.194 9.12391 23.5031 7.96321 23.0078 6.76753C22.5178 5.58461 21.7997 4.50978 20.8943 3.60441C19.9889 2.69904 18.9141 1.98086 17.7312 1.49087ZM14.75 5.03297C14.75 4.25869 15.0777 3.56904 15.5425 3.1583C15.9881 2.7645 16.5495 2.62499 17.1571 2.87669C18.1581 3.29129 19.0676 3.89898 19.8336 4.66507C20.5997 5.43115 21.2074 6.34062 21.622 7.34156C21.8737 7.94923 21.7342 8.5106 21.3404 8.95624C20.9297 9.42105 20.24 9.7487 19.4657 9.7487H18.5C16.4289 9.7487 14.75 8.06977 14.75 5.9987V5.03297Z" fill="#2D264B"/>
<path fill-rule="evenodd" clip-rule="evenodd" d="M11.75 6.4987C11.75 5.03934 10.5133 3.61286 8.85109 3.98846C7.69088 4.25062 6.58234 4.72426 5.58319 5.39187C3.97982 6.46321 2.73013 7.98596 1.99218 9.76754C1.25422 11.5491 1.06114 13.5095 1.43735 15.4008C1.81355 17.2921 2.74215 19.0294 4.10571 20.393C5.46928 21.7566 7.20656 22.6851 9.09787 23.0614C10.9892 23.4376 12.9496 23.2445 14.7312 22.5065C16.5127 21.7686 18.0355 20.5189 19.1068 18.9155C19.7744 17.9164 20.2481 16.8078 20.5102 15.6476C20.8858 13.9854 19.4594 12.7487 18 12.7487H16C13.6528 12.7487 11.75 10.8459 11.75 8.4987V6.4987ZM9.1817 5.45157C9.67431 5.34026 10.25 5.74891 10.25 6.4987V8.4987C10.25 11.6743 12.8244 14.2487 16 14.2487H18C18.7498 14.2487 19.1584 14.8244 19.0471 15.317C18.8253 16.2987 18.4245 17.2367 17.8596 18.0822C16.9531 19.4389 15.6646 20.4963 14.1571 21.1207C12.6497 21.7451 10.9909 21.9085 9.39051 21.5902C7.79017 21.2718 6.32016 20.4861 5.16637 19.3323C4.01259 18.1785 3.22685 16.7085 2.90853 15.1082C2.5902 13.5079 2.75358 11.8491 3.378 10.3416C4.00242 8.83407 5.05984 7.5456 6.41655 6.63907C7.26198 6.07418 8.19996 5.67341 9.1817 5.45157Z" fill="#2D264B"/>
</svg>
