<svg width="24" height="24" viewBox="0 0 24 24" fill="none" xmlns="http://www.w3.org/2000/svg">
<path fill-rule="evenodd" clip-rule="evenodd" d="M7.70708 2.334C4.52048 1.72287 1.72287 4.5205 2.334 7.70709L4.08865 16.8561C4.47008 18.845 5.97552 20.4355 7.93169 20.9409C11.8373 21.9498 15.4067 18.3277 14.263 14.4386C14.2314 14.3312 14.3312 14.2314 14.4386 14.263C18.3277 15.4067 21.9498 11.8373 20.9409 7.93167C20.4355 5.9755 18.845 4.47005 16.8561 4.08863L7.70708 2.334ZM3.80716 7.42457C3.39571 5.27921 5.2792 3.39571 7.42456 3.80715L16.5736 5.56178C17.9885 5.83313 19.127 6.90741 19.4886 8.30685C20.2111 11.104 17.6143 13.6334 14.8618 12.824C13.6154 12.4574 12.4574 13.6154 12.824 14.8618C13.6334 17.6142 11.104 20.2111 8.30686 19.4885C6.90743 19.127 5.83315 17.9885 5.5618 16.5736L3.80716 7.42457Z" fill="#2D264B"/>
</svg>
