<svg width="24" height="24" viewBox="0 0 24 24" fill="none" xmlns="http://www.w3.org/2000/svg">
<path fill-rule="evenodd" clip-rule="evenodd" d="M21.0273 7.70708C21.6385 4.52048 18.8408 1.72287 15.6542 2.334L6.5052 4.08865C4.51636 4.47008 2.92582 5.97552 2.42049 7.93169C1.41158 11.8373 5.03362 15.4067 8.92271 14.263C9.03011 14.2314 9.1299 14.3312 9.09831 14.4386C7.95463 18.3277 11.5241 21.9498 15.4297 20.9409C17.3858 20.4355 18.8913 18.845 19.2727 16.8561L21.0273 7.70708ZM15.9368 3.80716C18.0821 3.39571 19.9656 5.2792 19.5542 7.42456L17.7996 16.5736C17.5282 17.9885 16.4539 19.127 15.0545 19.4886C12.2574 20.2111 9.72796 17.6143 10.5374 14.8618C10.9039 13.6154 9.7459 12.4574 8.49952 12.824C5.74711 13.6334 3.15025 11.104 3.87281 8.30686C4.23432 6.90743 5.37284 5.83315 6.78773 5.5618L15.9368 3.80716Z" fill="#2D264B"/>
</svg>
